<svg xmlns="http://www.w3.org/2000/svg" viewBox="0 0 1600 900" role="img" aria-labelledby="title desc">
  <title id="title">Abstract Porsche GT1 cover</title>
  <desc id="desc">A minimal silver and charcoal composition suggesting a long-tail racing car profile.</desc>
  <defs>
    <linearGradient id="bg" x1="0%" y1="0%" x2="100%" y2="100%">
      <stop offset="0%" stop-color="#0f172a" />
      <stop offset="100%" stop-color="#1e293b" />
    </linearGradient>
    <linearGradient id="glow" x1="0%" y1="0%" x2="100%" y2="0%">
      <stop offset="0%" stop-color="#e2e8f0" stop-opacity="0" />
      <stop offset="50%" stop-color="#f8fafc" stop-opacity="0.88" />
      <stop offset="100%" stop-color="#e2e8f0" stop-opacity="0" />
    </linearGradient>
  </defs>

  <rect width="1600" height="900" fill="url(#bg)" />
  <ellipse cx="1260" cy="190" rx="280" ry="160" fill="#475569" fill-opacity="0.28" />
  <ellipse cx="340" cy="720" rx="420" ry="180" fill="#020617" fill-opacity="0.72" />

  <path
    d="M170 600C278 600 384 582 468 548C578 504 666 414 768 378C838 354 914 346 990 350C1086 356 1176 386 1290 452"
    fill="none"
    stroke="url(#glow)"
    stroke-width="8"
    stroke-linecap="round"
  />
  <path
    d="M316 650C474 648 620 636 770 614C934 590 1086 560 1260 510"
    fill="none"
    stroke="#cbd5e1"
    stroke-opacity="0.26"
    stroke-width="3"
    stroke-linecap="round"
  />
  <circle cx="516" cy="646" r="50" fill="none" stroke="#94a3b8" stroke-opacity="0.42" stroke-width="4" />
  <circle cx="1116" cy="596" r="56" fill="none" stroke="#94a3b8" stroke-opacity="0.42" stroke-width="4" />
</svg>
